<?xml version="1.0" standalone="no"?>
<!DOCTYPE svg PUBLIC "-//W3C//DTD SVG 20010904//EN"
 "https://www.w3.org/TR/2001/REC-SVG-20010904/DTD/svg10.dtd">
<svg version="1.0" xmlns="https://www.w3.org/2000/svg"
 width="260.000000pt" height="260.000000pt" viewBox="0 0 260.000000 260.000000"
 preserveAspectRatio="xMidYMid meet">
<metadata>
Created by potrace 1.11, written by Peter Selinger 2001-2013
</metadata>
<g transform="translate(0.000000,260.000000) scale(0.100000,-0.100000)"
fill="#000000" stroke="none">
<path d="M0 2195 l0 -405 160 0 160 0 1 43 c1 61 21 107 60 138 37 29 865 494
964 540 68 33 106 36 160 13 89 -37 973 -538 1005 -570 l35 -34 3 -610 2 -610
-32 -35 c-31 -32 -935 -568 -1018 -603 -77 -32 -87 -28 -629 289 -308 180
-512 305 -524 321 -12 16 -22 49 -25 83 l-4 55 -159 0 -159 0 0 -405 0 -405
1300 0 1300 0 0 1300 0 1300 -1300 0 -1300 0 0 -405z"/>
<path d="M1071 2106 c-200 -112 -368 -209 -373 -214 -6 -6 16 -24 61 -50 l70
-40 313 175 c172 96 325 181 341 189 26 14 35 10 330 -155 l302 -169 38 21
c20 11 34 24 30 28 -7 6 -729 411 -742 416 -3 1 -170 -89 -370 -201z"/>
<path d="M0 1580 l0 -70 323 0 322 0 328 -190 c181 -105 331 -190 333 -190 2
0 4 19 4 43 l-1 42 -375 218 -375 217 -280 0 -279 0 0 -70z"/>
<path d="M1940 1431 l-375 -218 -3 -426 c-1 -235 1 -427 4 -427 3 0 19 8 35
17 l29 17 2 345 3 346 345 200 345 201 3 82 c2 45 -1 82 -5 82 -4 0 -177 -98
-383 -219z"/>
<path d="M0 1300 l0 -70 239 0 240 0 20 26 c27 35 26 59 -4 89 l-24 25 -236 0
-235 0 0 -70z"/>
<path d="M0 1020 l0 -70 438 0 439 0 21 23 c28 30 28 68 -1 95 -23 22 -25 22
-460 22 l-437 0 0 -70z"/>
</g>
</svg>
